<?xml version="1.0" standalone="no"?>
<!DOCTYPE svg PUBLIC "-//W3C//DTD SVG 20010904//EN"
 "http://www.w3.org/TR/2001/REC-SVG-20010904/DTD/svg10.dtd">
<svg version="1.0" xmlns="http://www.w3.org/2000/svg"
 width="700.000000pt" height="700.000000pt" viewBox="0 0 700.000000 700.000000"
 preserveAspectRatio="xMidYMid meet">
<metadata>
Created by potrace 1.14, written by Peter Selinger 2001-2017
</metadata>
<g transform="translate(0.000000,700.000000) scale(0.100000,-0.100000)"
fill="#000000" stroke="none">
<path d="M1919 6996 c-2 -2 -69 -6 -149 -10 -80 -4 -161 -8 -180 -11 -19 -2
-62 -6 -95 -9 -33 -4 -72 -8 -88 -11 -166 -29 -166 -29 -237 -48 -361 -97
-727 -388 -937 -747 -110 -188 -166 -372 -199 -655 -26 -220 -29 -454 -29
-2000 0 -1551 4 -1834 30 -2017 3 -21 8 -57 11 -80 14 -102 46 -243 75 -325
128 -361 423 -696 780 -883 95 -49 268 -112 341 -124 21 -3 58 -10 83 -16 25
-6 63 -12 83 -15 115 -14 142 -17 187 -21 199 -16 523 -19 1905 -19 1383 0
1777 4 1925 20 58 7 206 26 230 30 334 59 599 198 841 439 266 265 416 564
459 916 3 25 7 61 10 80 26 192 30 433 30 1995 0 1400 -4 1799 -20 1925 -2 19
-7 62 -10 95 -20 211 -77 420 -155 575 -78 155 -173 284 -309 421 -140 139
-270 234 -436 316 -132 66 -325 121 -481 138 -33 4 -66 8 -74 10 -8 2 -58 7
-110 10 -52 4 -111 9 -130 12 -37 6 -3345 15 -3351 9z"/>
</g>
</svg>
