<svg width="140" height="140" viewBox="0 0 140 140" fill="none" xmlns="http://www.w3.org/2000/svg">
<path d="M140 0H0V140H140V0Z" fill="white"/>
<path d="M140 67.5993V120.999C136.8 117.199 132.4 112.799 128 109.199C118.8 101.799 108.6 95.9993 98.1996 91.5993C83.1996 85.3993 67.3996 82.3993 51.5996 82.3993C75.3996 61.1993 109.6 54.5993 140 66.9993C140 66.7993 140 67.1993 140 67.5993Z" fill="#E0E0F3"/>
<path d="M140 120.8V140H37C37.8 121.6 38.6 98.6004 38 97.8004C42 92.0004 46.4 86.8004 51.6 82.4004C67.4 82.4004 83.4 85.6004 98.2 91.6004C108.8 96.0004 118.8 101.8 128 109.2C132.6 112.8 136.8 117 140 120.8Z" fill="#E0E0F3"/>
<path d="M75.6 29.5996H45.2L37 40.3996V45.5996H81.6L75.6 29.5996Z" fill="#D2D2ED"/>
<path d="M67.6 40.3996H67.4L75.6 29.5996L83.8 40.3996V87.3996L37 85.9996V40.3996H67.6Z" fill="#EFEFF9"/>
<path d="M58.9996 56.4004H28.5996L22.5996 72.4004H60.1996L66.9996 67.2004L58.9996 56.4004Z" fill="#D2D2ED"/>
<path d="M36.6004 67.0004L28.4004 56.4004L20.4004 67.0004V86.8004H67.0004V67.0004H36.6004Z" fill="#EFEFF9"/>
<path d="M56.8 52.7996H61V45.5996H56.8V52.7996ZM43 52.7996H47.2V45.5996H43V52.7996ZM73.4 52.7996H77.6V45.5996H73.4V52.7996ZM73.4 69.7996H77.6V62.5996H73.4V69.7996ZM47.2 72.1996H43V79.3996H47.2V72.1996ZM61 72.1996H56.8V79.3996H61V72.1996Z" fill="white"/>
<path d="M123.2 80.7996C123.2 91.7996 120.2 92.3996 116.6 92.3996C113 92.3996 110 91.7996 110 80.7996C110 69.7996 113 52.5996 116.6 52.5996C120.2 52.5996 123.2 69.7996 123.2 80.7996Z" fill="#D2D2ED"/>
<path d="M116.4 102H117V79.5996H116.4V102Z" fill="white"/>
<path d="M103.2 81C103.2 87 101.6 87 99.6 87C97.6 87 96 87 96 81C96 75 97.6 65 99.6 65C101.6 65 103.2 74.8 103.2 81Z" fill="#F8F8FF"/>
<path d="M99.4004 92.4002H100V79.2002H99.4004V92.4002Z" fill="#D2D2ED"/>
<path d="M140 120.799V139.999H0V93.3995C1 92.7995 2.2 92.3995 3.4 91.7995C18.8 85.3995 35.2 82.1995 51.6 82.3995C67.4 82.3995 83.4 85.5995 98.2 91.5995C108.8 95.9995 118.8 101.799 128 109.199C132.6 112.799 136.8 116.999 140 120.799Z" fill="#EFEFF9"/>
<path d="M129.4 140H107.4C91.4 132.6 73.8 128.6 56.4 128.8C52.2 128.8 40.4 129.4 29 132.2C23 133.6 14.4 136.6 6.2 140H0V130C6.2 127.2 14.2 124 22.2 121.8C22.2 121.8 24.4 121.2 25.6 120.8C38 117.6 51 116.2 63.8 117C79.2 117.8 94.6 121.6 109 128.2C116 131.4 123 135.4 129.4 140Z" fill="#E0E0F3"/>
<path d="M140 126.8V140H138.6C129.4 131.2 117.6 121.8 106.6 116.4C94.4 110.4 81.2 106.4 67.6 104.6C49 102.2 30.2 104 12.4 110C5.8 112.4 2.2 113.8 0 114.8V102.4C2.2 101.6 4.6 100.8 6.6 99.9999C13.6 97.3999 20.6 95.1999 27.8 93.9999C36.2 92.5999 50.8 91.1999 62 92.1999C62 92.1999 64.6 92.3999 65.8 92.5999C84.4 94.3999 102.4 100.4 118.6 110.2C126.2 114.8 133.4 120.4 140 126.8Z" fill="#E0E0F3"/>
<path d="M100.4 36.5996C104.2 36.5996 107.4 33.3996 107.4 29.5996C107.4 25.7996 104.2 22.5996 100.4 22.5996C96.6004 22.5996 93.4004 25.7996 93.4004 29.5996C93.4004 33.3996 96.6004 36.5996 100.4 36.5996Z" fill="#EFEFF9"/>
</svg>
