<svg width="140" height="140" viewBox="0 0 140 140" fill="none" xmlns="http://www.w3.org/2000/svg">
<path d="M45.0287 98.6807H43.355V120.824H45.0287V98.6807Z" fill="#F5F5FA"/>
<path d="M55.2515 121.435V121.978H33.1543V121.435L44.1916 120.303L55.2515 121.435Z" fill="#F5F5FA"/>
<path d="M36.1405 60.0547L29.6719 86.4994C29.6719 94.4917 36.1405 100.967 44.1244 100.967C52.1083 100.967 58.5769 94.4917 58.5769 86.4994L51.475 60.0547H36.1405Z" fill="#F5F5FA"/>
<g style="mix-blend-mode:multiply">
<path d="M30.9155 86.6807C30.9155 93.9937 36.8413 99.9257 44.1467 99.9257C51.4521 99.9257 57.3779 93.9937 57.3779 86.6807H30.9155Z" fill="#F5F5FA"/>
</g>
<path d="M61.0532 60.788C61.0094 55.5019 64.0712 50.9232 68.5295 48.7768L68.2569 15.9286C68.251 15.2213 68.8249 14.6377 69.5323 14.6318L78.201 14.5599C78.9083 14.554 79.4919 15.128 79.4978 15.8353L79.7704 48.6835C84.2637 50.7556 87.4012 55.2957 87.4449 60.5689L87.9339 119.487C87.9398 120.195 87.3658 120.778 86.6584 120.784L62.8261 120.982C62.1188 120.988 61.5352 120.414 61.5293 119.706L61.0404 60.7881L61.0532 60.788Z" fill="#F5F5FA"/>
<g style="mix-blend-mode:multiply">
<path d="M69.532 14.6324L78.2007 14.5605C78.9081 14.5546 79.4916 15.1286 79.4975 15.836L79.689 38.9094L68.4481 39.0027L68.2566 15.9292C68.2507 15.2219 68.8247 14.6383 69.532 14.6324Z" fill="#F5F5FA"/>
</g>
<g style="mix-blend-mode:multiply">
<path d="M68.5296 48.7772L68.257 15.929C68.2512 15.2216 68.8251 14.6381 69.5325 14.6322L74.0469 14.5947C73.3395 14.6006 72.7655 15.1842 72.7714 15.8915L73.0544 49.9873C73.0884 54.0901 68.0915 54.8776 68.1478 61.6684L68.629 119.648C68.6349 120.355 69.2185 120.929 69.9258 120.923L62.8392 120.982C62.1318 120.988 61.5482 120.414 61.5424 119.707L61.0534 60.7883C61.0096 55.5151 64.0714 50.9236 68.5296 48.7772Z" fill="#F5F5FA"/>
</g>
<g style="mix-blend-mode:multiply">
<path d="M77.8473 23.0265L68.3361 25.4207L68.3168 23.0928L77.8473 23.0265Z" fill="#F5F5FA"/>
</g>
<path d="M68.5101 23.1044L79.3652 23.0143C80.0725 23.0084 80.6465 22.4249 80.6406 21.7175L80.6088 17.8848C80.6029 17.1774 80.0194 16.6034 79.312 16.6093L68.4569 16.6994C67.7495 16.7053 67.1756 17.2888 67.1815 17.9962L67.2134 21.8418C67.2192 22.5492 67.7898 23.1104 68.5101 23.1044Z" fill="#F5F5FA"/>
<g style="mix-blend-mode:multiply">
<path d="M68.4557 16.6984L73.0601 16.6602C72.3527 16.666 71.7787 17.2496 71.7846 17.957L71.8165 21.8026C71.8224 22.5099 72.4059 23.0839 73.1133 23.078L68.5089 23.1162C67.8015 23.1221 67.218 22.5481 67.2121 21.8408L67.1802 17.9952C67.1742 17.2749 67.7354 16.7043 68.4557 16.6984Z" fill="#F5F5FA"/>
</g>
<g style="mix-blend-mode:multiply">
<path d="M76.4891 43.9141C77.1579 43.9086 77.6936 43.3639 77.6881 42.6951L77.6179 34.2451C77.6124 33.5763 77.0677 33.0406 76.3989 33.0462C75.7301 33.0517 75.1944 33.5964 75.2 34.2652L75.2701 42.7152C75.2757 43.384 75.8203 43.9197 76.4891 43.9141Z" fill="#F5F5FA"/>
</g>
<g style="mix-blend-mode:multiply">
<path d="M81.0168 67.1954L87.499 67.1416L87.8611 110.768L81.3789 110.821L81.0168 67.1954Z" fill="#F5F5FA"/>
</g>
<g style="mix-blend-mode:multiply">
<path d="M81.0168 67.1954L87.499 67.1416L87.5363 71.6303L81.0541 71.684L81.0168 67.1954Z" fill="#F5F5FA"/>
</g>
<path d="M87.2878 120.031C87.4064 120.371 87.7664 120.545 88.1061 120.426C88.4458 120.308 88.6195 119.948 88.501 119.608C87.7686 117.509 87.6382 115.459 88.1148 113.51C88.4763 112.05 89.0617 111.192 89.0617 111.192C89.2608 110.905 89.1903 110.508 88.8988 110.297C88.6115 110.098 88.2143 110.168 88.003 110.46C87.9034 110.603 85.3149 114.378 87.2878 120.031Z" fill="#F5F5FA"/>
<g style="mix-blend-mode:multiply">
<path d="M87.2878 120.031C87.4064 120.371 87.7664 120.545 88.1061 120.426C88.4458 120.308 88.6195 119.948 88.501 119.608C87.7686 117.509 87.6382 115.459 88.1148 113.51C88.4763 112.05 89.0617 111.192 89.0617 111.192C89.2608 110.905 89.1903 110.508 88.8988 110.297C88.6115 110.098 88.2143 110.168 88.003 110.46C87.9034 110.603 85.3149 114.378 87.2878 120.031Z" fill="#F5F5FA"/>
</g>
<path d="M88.2616 111.24C88.2616 111.24 87.6543 110.241 85.1095 111.333C82.5647 112.425 79.1229 110.986 78.3032 103.529L81.2261 105.353C81.2261 105.353 78.0741 97.335 83.9965 94.2611C83.9965 94.2611 87.0803 93.9334 89.0593 98.2782C89.0593 98.2782 92.0605 92.0594 99.286 92.3686C99.286 92.3686 99.6916 95.7926 100.784 98.3374C101.876 100.882 100.922 104.114 100.12 104.938C100.12 104.938 106.013 107.863 105.865 108.336C105.718 108.809 103.573 114.988 98.1625 114.848L100.958 116.894C100.958 116.894 93.021 120.004 91.7651 116.795C90.5213 113.582 90.654 112.324 88.2616 111.24Z" fill="#F5F5FA"/>
<g style="mix-blend-mode:multiply">
<path d="M98.1593 114.836L100.96 116.894C100.96 116.894 93.0221 120.004 91.7662 116.795C90.5224 113.582 90.6387 112.316 88.2627 111.24C88.2627 111.24 87.6554 110.241 85.1106 111.333C82.5658 112.426 79.124 110.986 78.3043 103.529L81.2272 105.353C81.2272 105.353 78.0752 97.335 83.9976 94.2612C83.9976 94.2612 84.2357 102.548 87.7889 106.139C91.3421 109.73 93.4553 105.101 93.4553 105.101C93.4553 105.101 94.3861 115.84 105.854 108.34C105.719 108.809 103.57 114.976 98.1593 114.836Z" fill="#F5F5FA"/>
</g>
</svg>
