<svg width="40" height="40" viewBox="0 0 40 40" fill="none" xmlns="http://www.w3.org/2000/svg">
<path fill-rule="evenodd" clip-rule="evenodd" d="M21.0899 39.2335C24.9554 36.4392 37.7777 26.488 37.7777 17.4388C37.7777 7.80761 29.8183 0 19.9999 0C10.1816 0 2.22217 7.80761 2.22217 17.4388C2.22217 26.488 15.0445 36.4392 18.91 39.2335C19.5668 39.7083 20.4331 39.7083 21.0899 39.2335ZM20.0001 22.2224C22.4547 22.2224 24.4446 20.2325 24.4446 17.7779C24.4446 15.3233 22.4547 13.3335 20.0001 13.3335C17.5455 13.3335 15.5557 15.3233 15.5557 17.7779C15.5557 20.2325 17.5455 22.2224 20.0001 22.2224Z" fill="url(#paint0_linear)"/>
<defs>
<linearGradient id="paint0_linear" x1="7.77772" y1="3.33729" x2="20.026" y2="39.5808" gradientUnits="userSpaceOnUse">
<stop stop-color="#D7A7FB"/>
<stop offset="1" stop-color="#B381D9"/>
</linearGradient>
</defs>
</svg>
