<svg width="32" height="32" viewBox="0 0 32 32" fill="none" xmlns="http://www.w3.org/2000/svg">
<path d="M5 13.1194V19C5 21.7614 7.23858 24 10 24H22C24.7614 24 27 21.7614 27 19V12.9264C27 11.3206 25.7962 9.96983 24.2009 9.78569C23.0503 9.65286 22.0426 8.91797 21.5566 7.85942C21.0398 6.73375 19.9104 6 18.6642 6H13.6511C12.4302 6 11.3383 6.75992 10.9142 7.9048C10.5375 8.92177 9.61399 9.63504 8.53482 9.74254L8.0098 9.79484C6.30134 9.96503 5 11.4024 5 13.1194Z" stroke="white" stroke-width="2"/>
<circle cx="16" cy="16" r="4" stroke="white" stroke-width="2"/>
</svg>
