<svg width="24" height="24" viewBox="0 0 24 24" fill="none" xmlns="http://www.w3.org/2000/svg">
<path d="M21 12.5C21 17.1944 17.1944 21 12.5 21C7.80558 21 4 17.1944 4 12.5C4 7.80558 7.80558 4 12.5 4C17.1944 4 21 7.80558 21 12.5ZM7.995 12.5C7.995 14.988 10.012 17.005 12.5 17.005C14.988 17.005 17.005 14.988 17.005 12.5C17.005 10.012 14.988 7.995 12.5 7.995C10.012 7.995 7.995 10.012 7.995 12.5Z" fill="#C5C5D6"/>
<path d="M20.4874 15.4072C20.0286 16.6677 19.278 17.8017 18.297 18.7165C17.316 19.6313 16.1323 20.301 14.8429 20.6707C13.5535 21.0405 12.1949 21.0998 10.8781 20.8438C9.56138 20.5879 8.32391 20.0239 7.26688 19.1981C6.20985 18.3723 5.36328 17.308 4.79638 16.0923C4.22949 14.8765 3.95836 13.5439 4.00518 12.2034C4.05199 10.8628 4.41541 9.55232 5.06573 8.37912C5.71605 7.20591 6.6348 6.20328 7.74686 5.45318L9.98084 8.76519C9.39144 9.16274 8.90451 9.69413 8.55984 10.3159C8.21517 10.9377 8.02256 11.6323 7.99774 12.3428C7.97293 13.0533 8.11663 13.7596 8.41708 14.4039C8.71754 15.0482 9.16622 15.6123 9.72645 16.05C10.2867 16.4877 10.9425 16.7866 11.6404 16.9222C12.3383 17.0579 13.0584 17.0264 13.7417 16.8305C14.4251 16.6345 15.0525 16.2796 15.5724 15.7947C16.0923 15.3099 16.4902 14.7089 16.7333 14.0408L20.4874 15.4072Z" fill="#9D9DB6"/>
</svg>
