<svg width="40" height="40" viewBox="0 0 40 40" fill="none" xmlns="http://www.w3.org/2000/svg">
<rect width="40" height="40" rx="8" fill="#F0F0F5"/>
<rect width="40" height="40" rx="8" fill="#A52122"/>
<path d="M21.4357 27.1854C20.8544 24.8777 21.8645 25.0479 24.0082 24.6204C26.152 24.1929 31.7258 24.1929 31.7258 24.1929C31.7258 24.1929 29.1533 26.7579 27.4383 27.6128C25.7233 28.4678 22.2932 28.4678 21.8645 28.0403C21.4357 27.6128 21.5269 27.5474 21.4357 27.1854Z" fill="white"/>
<path d="M15.0051 24.6215C14.7479 24.878 14.1476 25.8185 13.7189 26.4597C13.333 27.0582 13.4616 27.8277 14.019 28.2552C14.1905 28.3834 14.362 28.4689 14.5764 28.4689C15.4339 28.4689 19.7214 28.4689 19.7214 28.4689C19.7214 28.4689 20.5789 28.4689 20.5789 27.1864C20.5789 25.904 20.5789 25.049 19.7214 24.6215C18.8639 24.194 17.1489 22.9115 16.2914 23.339C15.4339 23.7665 15.0051 24.6215 15.0051 24.6215Z" fill="white"/>
<path d="M9.17264 25.0909C8.87251 25.3046 8.82963 25.7321 9.08689 25.9886C9.77289 26.6299 10.9734 27.6131 11.5737 27.6131C12.4312 27.6131 15.4324 23.3382 15.4324 22.9107C15.4324 22.4832 14.5749 22.0557 14.1462 22.0557C13.8032 22.0557 10.5447 24.1931 9.17264 25.0909Z" fill="white"/>
<path d="M13.0316 21.9706L8.1009 24.45C7.88652 24.5783 7.58639 24.5355 7.37201 24.3645C6.85751 23.937 6 22.9966 6 22.0988C6 21.5003 6.08575 21.1156 6.1715 20.8591C6.25725 20.6026 6.55738 20.4316 6.85751 20.4743L12.9887 21.5431C13.2031 21.5431 13.2459 21.8851 13.0316 21.9706Z" fill="white"/>
<path d="M8.1009 15.9425C7.84364 15.7288 7.45776 15.7715 7.24339 16.028C6.68601 16.6693 6 17.7808 6 19.277C6 19.5335 6.343 19.79 6.85751 19.961C8.14377 20.3885 13.4174 20.6877 13.7176 20.3885C14.1463 19.9182 9.47291 16.9685 8.1009 15.9425Z" fill="white"/>
<path d="M9.08622 14.6179C8.78609 14.9171 8.78609 15.3873 9.12909 15.6438C10.544 16.7126 14.2313 19.4913 14.5743 19.4913C15.003 19.4913 16.718 19.0638 16.718 18.6363C16.718 18.2088 15.4318 17.7813 15.4318 16.4988C15.4318 15.6011 15.6462 14.0194 15.7748 13.2071C15.8177 12.9079 15.6033 12.6514 15.3032 12.6514C14.2313 12.7369 12.0017 12.8651 10.7155 13.5064C9.94372 13.8911 9.42922 14.3186 9.08622 14.6179Z" fill="white"/>
<path d="M15.0069 21.6285L14.1494 20.7735L16.7219 19.491L20.5807 22.9109L16.7219 20.346L15.0069 21.6285Z" fill="white"/>
<path d="M15.4346 22.0559L15.8633 22.4834L16.7208 22.0559L19.2934 23.3384L16.7208 21.2009L15.4346 22.0559Z" fill="white"/>
<path d="M22.7891 18.2095V19.0645H28.7916L32.6504 21.6294L28.7916 18.2095H22.7891Z" fill="white"/>
<path d="M20.7058 19.8757L26.5797 19.9185L29.1522 23.3384L27.0085 19.491H20.5771L20.7058 19.8757Z" fill="white"/>
<path d="M33.3131 14.9598C30.8692 14.9598 29.6258 13.7201 29.6258 13.7201H34.5565L29.6258 12.5231C29.6258 12.5231 27.9965 11.5826 25.2954 12.2238C22.8943 12.7796 17.3205 12.5231 17.3205 12.5231C16.0771 12.5231 16.0771 14.9598 16.0771 16.1995C16.0771 17.4393 18.521 19.876 21.0078 19.876C23.4946 19.876 27.139 16.1995 28.3824 16.1995C29.6258 16.1995 29.3898 16.5074 31.8337 16.5074C34.2776 16.5074 37.0004 15.0025 37.0004 15.0025C37.0004 15.0025 35.757 14.9598 33.3131 14.9598ZM27.6535 14.3613C27.3105 14.3613 27.0104 14.1048 27.0104 13.7201C27.0104 13.3353 27.3105 13.0788 27.6535 13.0788C27.9965 13.0788 28.2966 13.3781 28.2966 13.7201C28.2966 14.0621 27.9965 14.3613 27.6535 14.3613Z" fill="white"/>
</svg>
