<svg width="40" height="40" viewBox="0 0 40 40" fill="none" xmlns="http://www.w3.org/2000/svg">
<rect width="40" height="40" rx="8" fill="black"/>
<path d="M34.6549 28.4763L31.8966 27.7539L32.1161 21.5462C32.2087 21.4323 32.2789 21.3025 32.3235 21.1644C34.242 20.6857 35.6055 18.8309 35.6055 16.6391C35.6055 14.2368 34.6306 11.3962 34.589 11.2763L34.4935 11.0005H27.8948L27.7956 11.2684C27.7539 11.3807 26.7764 14.0487 26.7764 16.6391C26.7764 18.9106 28.0643 20.6905 30.0118 21.1623C30.0632 21.3242 30.15 21.4735 30.2672 21.6007L30.4849 27.7541L27.7271 28.4763C27.3444 28.5512 27.069 28.8773 27.069 29.2601V29.8232H35.313V29.2601C35.313 28.8773 35.0375 28.5512 34.6549 28.4763Z" fill="white"/>
<path d="M34.519 16.6047C34.519 16.5424 34.5166 16.4788 34.5151 16.4157C34.4597 16.3909 34.4032 16.3666 34.3504 16.3406C33.9441 16.1398 33.5931 15.9664 32.8449 15.9664C32.0957 15.9664 31.7456 16.1398 31.3392 16.3406C30.9173 16.5497 30.4391 16.786 29.5318 16.786C28.7202 16.786 28.2569 16.5964 27.8661 16.4068C27.8646 16.4727 27.8623 16.5388 27.8623 16.6047C27.8623 17.4473 28.0879 18.1989 28.4825 18.7935C28.5175 18.8415 28.5502 18.891 28.5881 18.9374C29.2354 19.7317 30.1846 20.1875 31.191 20.1875C31.4345 20.1875 31.6744 20.1596 31.9078 20.1079C31.9224 20.105 31.9367 20.1012 31.9512 20.0981C32.3893 19.9948 32.8007 19.8004 33.1655 19.5312C33.9931 18.8866 34.519 17.8139 34.519 16.6047Z" fill="#9E080D"/>
<path d="M23.2693 28.5299C22.5195 29.2538 21.3043 29.7451 19.6754 29.7451C18.0724 29.7451 16.883 29.3056 16.1073 28.5299C15.2283 27.6509 14.918 26.5132 14.918 24.574H17.8138C17.8138 25.5565 17.9172 26.1771 18.3309 26.6425C18.5894 26.9269 19.029 27.1337 19.6754 27.1337C20.3476 27.1337 20.7872 26.9527 21.0716 26.6166C21.4594 26.1771 21.5628 25.5565 21.5628 24.574C21.5628 22.609 21.2526 22.1178 19.8305 21.5489L17.6328 20.6441C15.7712 19.8683 15.0732 18.8599 15.0732 16.0158C15.0732 14.3611 15.5644 13.0166 16.5727 12.1117C17.3742 11.4136 18.4084 10.9999 19.7271 10.9999C21.2009 10.9999 22.2868 11.3877 23.0366 12.1117C23.9933 13.0424 24.3294 14.3611 24.3294 16.1193H21.4336C21.4336 15.2919 21.3819 14.6455 20.9941 14.1543C20.7355 13.8182 20.3218 13.6114 19.7013 13.6114C19.1066 13.6114 18.7446 13.8182 18.4602 14.1284C18.1241 14.5162 17.9689 15.1368 17.9689 15.9383C17.9689 17.4379 18.2016 17.9034 19.4944 18.4204L21.6662 19.2995C23.864 20.2044 24.4586 21.3679 24.4586 24.4706C24.4586 26.358 24.2001 27.625 23.2693 28.5299Z" fill="white"/>
<path d="M11.3171 28.4085C10.438 29.3393 9.24867 29.8047 7.61976 29.8047C6.12015 29.8047 4.87907 29.2617 4 28.331L6.01666 26.3918C6.32705 26.8314 6.94751 27.1933 7.61976 27.1933C8.80914 27.1933 9.6882 26.3659 9.6882 24.7887V11.1888H12.584V24.7887C12.584 26.2625 12.1704 27.5294 11.3171 28.4085Z" fill="white"/>
</svg>
