<svg width="40" height="40" viewBox="0 0 40 40" fill="none"
    xmlns="http://www.w3.org/2000/svg">
    <circle cx="20" cy="20" r="20" fill="white"/>
    <g clip-path="url(#clip0)">
        <path d="M26.9045 13.0984C25.44 11.6339 23.0657 11.6339 21.6012 13.0983L18.467 16.2325C16.9521 17.7474 17.0924 20.1612 18.467 21.5358C18.6972 21.766 18.9519 21.9537 19.2208 22.1079L19.7928 21.5358C20.168 21.1606 20.036 20.7219 20.0292 20.4054C19.9469 20.347 19.8668 20.2839 19.7928 20.21C19.0874 19.5047 19.0557 18.2955 19.7928 17.5583C19.9023 17.4489 22.8605 14.4907 22.927 14.4242C23.6582 13.693 24.8474 13.693 25.5786 14.4242C26.3098 15.1554 26.3098 16.3447 25.5786 17.0759L23.507 19.1475C23.5669 19.479 23.9264 20.2642 23.7415 21.5594C23.7505 21.5506 23.7613 21.5448 23.7703 21.5359L26.9045 18.4017C28.3689 16.9372 28.3689 14.5629 26.9045 13.0984Z" fill="black"/>
        <path d="M21.7787 18.2212C21.5485 17.991 21.2938 17.8033 21.0249 17.6492L20.4529 18.2212C20.0776 18.5964 20.2097 19.035 20.2165 19.3516C20.2989 19.41 20.379 19.473 20.4529 19.547C21.1583 20.2524 21.19 21.4615 20.4529 22.1986C20.3432 22.3084 17.1399 25.5116 17.0758 25.5757C16.3446 26.3069 15.1554 26.3069 14.4242 25.5757C13.693 24.8445 13.693 23.6553 14.4242 22.924L16.7388 20.6095C16.6789 20.278 16.3193 19.4928 16.5043 18.1975C16.4952 18.2064 16.4844 18.2122 16.4754 18.2212L13.0983 21.5983C11.6339 23.0628 11.6339 25.4371 13.0983 26.9016C14.5628 28.366 16.9371 28.366 18.4016 26.9016L21.7787 23.5245C23.2654 22.0378 23.1842 19.6267 21.7787 18.2212Z" fill="black"/>
    </g>
    <defs>
        <clipPath id="clip0">
            <rect width="16" height="16" fill="white" transform="translate(12 12)"/>
        </clipPath>
    </defs>
</svg>
