<svg width="34" height="34" viewBox="0 0 34 34" fill="none" xmlns="http://www.w3.org/2000/svg">
<ellipse cx="17" cy="26.5" rx="9" ry="2.5" fill="#B381D9"/>
<path fill-rule="evenodd" clip-rule="evenodd" d="M20.7526 22.1206C22.9016 19.9914 25 17.9122 25 13.9655C25 9.56628 21.4183 6 17 6C12.5817 6 9 9.56628 9 13.9655C9 17.9122 11.0984 19.9914 13.2474 22.1206C14.1551 23.02 15.0718 23.9283 15.8433 24.99C16.3592 25.7001 17.6408 25.7001 18.1567 24.99C18.9282 23.9283 19.8449 23.02 20.7526 22.1206ZM17 17C18.6569 17 20 15.6569 20 14C20 12.3431 18.6569 11 17 11C15.3431 11 14 12.3431 14 14C14 15.6569 15.3431 17 17 17Z" fill="#F5F5FA"/>
<path d="M20.7526 22.1206L20.0487 21.4103L20.7526 22.1206ZM13.2474 22.1206L12.5436 22.831H12.5436L13.2474 22.1206ZM15.8433 24.99L15.0342 25.5778L15.8433 24.99ZM18.1567 24.99L18.9658 25.5778L18.1567 24.99ZM24 13.9655C24 17.4594 22.2032 19.2756 20.0487 21.4103L21.4564 22.831C23.6 20.7071 26 18.3649 26 13.9655H24ZM17 7C20.8701 7 24 10.1226 24 13.9655H26C26 9.00993 21.9665 5 17 5V7ZM10 13.9655C10 10.1226 13.1299 7 17 7V5C12.0335 5 8 9.00993 8 13.9655H10ZM13.9513 21.4103C11.7968 19.2756 10 17.4594 10 13.9655H8C8 18.3649 10.4 20.7071 12.5436 22.831L13.9513 21.4103ZM16.6523 24.4022C15.8255 23.2643 14.8501 22.3008 13.9513 21.4103L12.5436 22.831C13.4602 23.7392 14.3182 24.5922 15.0342 25.5778L16.6523 24.4022ZM17.3477 24.4022C17.3237 24.4354 17.216 24.5226 17 24.5226C16.784 24.5226 16.6763 24.4354 16.6523 24.4022L15.0342 25.5778C15.5261 26.2547 16.3172 26.5226 17 26.5226C17.6828 26.5226 18.4739 26.2547 18.9658 25.5778L17.3477 24.4022ZM20.0487 21.4103C19.1499 22.3008 18.1745 23.2643 17.3477 24.4022L18.9658 25.5778C19.6818 24.5922 20.5398 23.7392 21.4564 22.831L20.0487 21.4103ZM19 14C19 15.1046 18.1046 16 17 16V18C19.2091 18 21 16.2091 21 14H19ZM17 12C18.1046 12 19 12.8954 19 14H21C21 11.7909 19.2091 10 17 10V12ZM15 14C15 12.8954 15.8954 12 17 12V10C14.7909 10 13 11.7909 13 14H15ZM17 16C15.8954 16 15 15.1046 15 14H13C13 16.2091 14.7909 18 17 18V16Z" fill="#B381D9"/>
</svg>
