<svg width="34" height="34" viewBox="0 0 34 34" fill="none" xmlns="http://www.w3.org/2000/svg">
<path d="M10.8499 24.2946C10.9328 23.9852 11.2508 23.8016 11.5602 23.8845L16.0421 25.0854C16.3515 25.1683 16.5352 25.4864 16.4523 25.7958L15.0227 31.1309C14.9165 31.5272 14.4436 31.691 14.115 31.4452L12.4858 30.2263C12.3665 30.1371 12.2175 30.0972 12.0697 30.1148L10.0493 30.3558C9.64183 30.4044 9.31414 30.0261 9.42034 29.6297L10.8499 24.2946Z" fill="currentColor"/>
<path d="M23.1501 24.2946C23.0672 23.9852 22.7492 23.8016 22.4398 23.8845L17.9579 25.0854C17.6485 25.1683 17.4648 25.4864 17.5477 25.7958L18.9773 31.1309C19.0835 31.5272 19.5564 31.691 19.885 31.4452L21.5142 30.2263C21.6335 30.1371 21.7825 30.0972 21.9303 30.1148L23.9507 30.3558C24.3582 30.4044 24.6859 30.0261 24.5797 29.6297L23.1501 24.2946Z" fill="currentColor"/>
<path d="M15.7819 4.93547C16.5003 4.38378 17.4997 4.38378 18.2181 4.93547L21.5905 7.5253C21.7296 7.63207 21.882 7.7201 22.044 7.78713L25.9731 9.41279C26.8101 9.7591 27.3098 10.6247 27.1912 11.5227L26.6346 15.7382C26.6116 15.912 26.6116 16.088 26.6346 16.2618L27.1912 20.4773C27.3098 21.3753 26.8101 22.2409 25.9731 22.5872L22.044 24.2129C21.882 24.2799 21.7296 24.3679 21.5905 24.4747L18.2181 27.0645C17.4997 27.6162 16.5003 27.6162 15.7819 27.0645L12.4095 24.4747C12.2704 24.3679 12.118 24.2799 11.956 24.2129L8.02691 22.5872C7.18993 22.2409 6.69019 21.3753 6.80877 20.4773L7.36543 16.2618C7.38838 16.088 7.38838 15.912 7.36543 15.7382L6.80877 11.5227C6.69018 10.6247 7.18993 9.7591 8.02691 9.41279L11.956 7.78713C12.118 7.7201 12.2704 7.63207 12.4095 7.5253L15.7819 4.93547Z" fill="#F5F5FA" stroke="currentColor" stroke-width="2"/>
<path d="M16.6701 11.4814C16.8289 11.2496 17.1711 11.2496 17.3299 11.4814L18.6829 13.4556C18.735 13.5315 18.8115 13.5872 18.8998 13.6132L21.1955 14.2899C21.465 14.3694 21.5708 14.6947 21.3994 14.9175L19.9399 16.8143C19.8838 16.8872 19.8546 16.9773 19.8571 17.0692L19.9229 19.4617C19.9306 19.7426 19.6538 19.9437 19.389 19.8495L17.134 19.0477C17.0473 19.0168 16.9527 19.0168 16.866 19.0477L14.611 19.8495C14.3462 19.9437 14.0694 19.7426 14.0771 19.4617L14.1429 17.0692C14.1454 16.9773 14.1162 16.8872 14.0601 16.8143L12.6006 14.9175C12.4292 14.6947 12.535 14.3694 12.8045 14.2899L15.1002 13.6132C15.1885 13.5872 15.265 13.5315 15.3171 13.4556L16.6701 11.4814Z" fill="currentColor" stroke="currentColor" stroke-linejoin="round"/>
</svg>
