<svg width="34" height="34" viewBox="0 0 34 34" fill="none" xmlns="http://www.w3.org/2000/svg">
<line x1="6.14728" y1="21.5975" x2="8.85384" y2="26.2854" stroke="currentColor" stroke-width="2" stroke-linecap="round" stroke-linejoin="round"/>
<line x1="20.3836" y1="6.72052" x2="28.8559" y2="21.395" stroke="currentColor" stroke-width="2" stroke-linecap="round" stroke-linejoin="round"/>
<path d="M20.0438 9.04593L7.24713 22.4182C6.93985 22.7393 6.88137 23.2247 7.10359 23.6096L7.58911 24.4506C7.81133 24.8355 8.26092 25.0275 8.69265 24.922L26.6717 20.5259C27.3193 20.3676 27.6336 19.6319 27.3002 19.0545L21.6323 9.23732C21.2989 8.65997 20.5047 8.56428 20.0438 9.04593Z" stroke="currentColor" stroke-width="2"/>
<path d="M23.1088 13.5393L7.77411 22.81C7.30821 23.0916 7.15323 23.6942 7.42545 24.1657L7.98648 25.1375C8.21592 25.5349 8.68637 25.7251 9.12754 25.5989L26.7621 20.5544C27.3794 20.3777 27.6727 19.6733 27.3631 19.1107L24.5022 13.9129C24.2282 13.4151 23.595 13.2453 23.1088 13.5393Z" fill="currentColor"/>
<path d="M13.0678 24.0555C13.0678 24.0555 14.3154 27.1665 16.9101 26.5927C19.5076 26.0183 19.8039 22.5442 19.8039 22.5442" stroke="currentColor" stroke-width="2"/>
</svg>
