<svg width="34" height="34" viewBox="0 0 34 34" fill="none" xmlns="http://www.w3.org/2000/svg">
<circle cx="14.5" cy="11.5" r="3.5" stroke="currentColor" stroke-width="2"/>
<circle cx="20.5" cy="12.5" r="2.5" fill="currentColor" stroke="currentColor" stroke-width="2"/>
<path d="M21 21.3636C21 23.9691 18.0901 25 14.5002 25C10.9104 25 8 23.9691 8 21.3636C8 17.8491 10.9101 15 14.5 15C18.0899 15 21 17.8491 21 21.3636Z" stroke="currentColor" stroke-width="2"/>
<path d="M20.5002 23C23.5378 23 26 22.1752 26 20.0909C26 17.2793 23.5376 15 20.5 15C19.3475 15 18.8838 14.9392 18 15.5C18 15.5 20.0362 17.6081 20.5002 19C20.8636 20.0902 21 22 20.5002 23Z" fill="currentColor" stroke="currentColor" stroke-width="2" stroke-linecap="round"/>
</svg>
