<svg width="34" height="34" viewBox="0 0 34 34" fill="none" xmlns="http://www.w3.org/2000/svg">
<path d="M21.6306 23.6465L22.3157 24.727C22.6279 25.2194 23.1638 25.5252 23.7466 25.5434L24.6506 25.5717C24.6636 25.5717 24.6743 25.5614 24.6745 25.5484C24.7132 23.5294 24.7311 20.912 24.6048 19.6828C24.534 18.9939 24.2576 17.8574 24.2576 17.8574L23.7466 17.8734C23.1638 17.8916 22.6279 18.1974 22.3157 18.6899L21.6306 19.7704L21.0324 20.8641C20.7447 21.3902 20.7447 22.0266 21.0324 22.5527L21.6306 23.6465Z" fill="currentColor"/>
<path d="M17.0371 14.2798C17.6346 13.0962 18.1909 11.8273 18.4041 9.90909C18.5703 8.41369 18.5559 7.09393 18.5081 6.20048C18.474 5.56451 18.9735 5 19.6104 5H20.4437C21.0806 5 21.5801 5.56451 21.546 6.20048C21.4982 7.09393 21.4838 8.41369 21.65 9.90909C22.1413 14.3293 24.4543 15.3018 24.8959 19.7273C25.0736 21.5081 24.9798 25.9785 24.9256 27.9907C24.9104 28.5553 24.4478 29 23.8831 29H17.2647" stroke="currentColor" stroke-width="2"/>
<path d="M18.3008 11.5449H22.0104" stroke="currentColor" stroke-width="2"/>
<mask id="mask0" mask-type="alpha" maskUnits="userSpaceOnUse" x="9" y="5" width="10" height="24">
<path d="M12.4532 6.20048C12.4192 5.56451 12.9186 5 13.5555 5H14.3889C15.0258 5 15.5252 5.56451 15.4912 6.20048C15.4434 7.09393 15.4289 8.41369 15.5951 9.90909C16.0864 14.3293 18.3994 15.3018 18.841 19.7273C19.0187 21.5081 18.925 25.9785 18.8708 27.9907C18.8555 28.5553 18.393 29 17.8283 29H10.1162C9.55142 29 9.08887 28.5553 9.07366 27.9907C9.01946 25.9785 8.9257 21.5081 9.10339 19.7273C9.54499 15.3018 11.858 14.3293 12.3493 9.90909C12.5155 8.41369 12.5011 7.09393 12.4532 6.20048Z" fill="#C4C4C4"/>
</mask>
<g mask="url(#mask0)">
<path d="M18.4562 17.8574H15.2274C14.0706 17.8574 13.1328 18.7952 13.1328 19.952V23.4772C13.1328 24.6339 14.0706 25.5717 15.2274 25.5717H18.7693H19.5241C20.1024 25.5717 20.5713 25.1028 20.5713 24.5244V18.9047C20.5713 18.3263 20.1024 17.8574 19.5241 17.8574H18.4562Z" fill="currentColor"/>
</g>
<path d="M12.4532 6.20048C12.4192 5.56451 12.9186 5 13.5555 5H14.3889C15.0258 5 15.5252 5.56451 15.4912 6.20048C15.4434 7.09393 15.4289 8.41369 15.5951 9.90909C16.0864 14.3293 18.3994 15.3018 18.841 19.7273C18.9951 21.2709 18.9451 24.8354 18.8938 27.068C18.869 28.1462 17.9854 29 16.9069 29H11.0375C9.95899 29 9.07542 28.1462 9.05063 27.068C8.9993 24.8354 8.94937 21.2709 9.10339 19.7273C9.54499 15.3018 11.858 14.3293 12.3493 9.90909C12.5155 8.41369 12.5011 7.09393 12.4532 6.20048Z" stroke="currentColor" stroke-width="2"/>
<path d="M12.2441 11.5449H15.9537" stroke="currentColor" stroke-width="2"/>
</svg>
