<svg width="34" height="34" viewBox="0 0 34 34" fill="none" xmlns="http://www.w3.org/2000/svg">
<path d="M16 27H10C8.89543 27 8 26.1046 8 25V10C8 8.89543 8.89543 8 10 8H22C23.1046 8 24 8.89543 24 10V12.5" stroke="currentColor" stroke-width="2" stroke-linecap="round"/>
<path d="M19 6C18.4477 6 18.0207 5.52548 17.7555 5.04103C17.4159 4.42067 16.7571 4 16 4C15.2429 4 14.5841 4.42067 14.2445 5.04103C13.9793 5.52548 13.5523 6 13 6C11.8954 6 11 6.89543 11 8V9C11 9.55228 11.4477 10 12 10H20C20.5523 10 21 9.55228 21 9V8C21 6.89543 20.1046 6 19 6Z" fill="currentColor"/>
<line x1="13" y1="13" x2="19" y2="13" stroke="currentColor" stroke-width="2" stroke-linecap="round"/>
<line x1="13" y1="17" x2="17" y2="17" stroke="currentColor" stroke-width="2" stroke-linecap="round"/>
<rect x="19" y="20" width="11" height="9" rx="1" fill="#F5F5FA" stroke="currentColor" stroke-width="2" stroke-linecap="round" stroke-linejoin="round"/>
<rect x="24" y="20" width="1" height="9" rx="0.5" stroke="currentColor" stroke-width="2" stroke-linecap="round" stroke-linejoin="round"/>
<rect x="19" y="24" width="11" height="1" fill="currentColor" stroke="currentColor" stroke-width="2" stroke-linecap="round" stroke-linejoin="round"/>
<path d="M27.8421 17.5789C27.8421 18.451 27.1352 19.1579 26.2632 19.1579C25.8627 19.1579 24.6842 19.1579 24.6842 19.1579C24.6842 19.1579 24.6842 18.0505 24.6842 17.5789C24.6842 16.7069 25.3911 16 26.2632 16C27.1352 16 27.8421 16.7069 27.8421 17.5789Z" fill="#F5F5FA" stroke="currentColor" stroke-width="2" stroke-linecap="round" stroke-linejoin="round"/>
<path d="M21.5263 17.5789C21.5263 18.451 22.2332 19.1579 23.1053 19.1579C23.5057 19.1579 24.6842 19.1579 24.6842 19.1579C24.6842 19.1579 24.6842 18.0505 24.6842 17.5789C24.6842 16.7069 23.9773 16 23.1053 16C22.2332 16 21.5263 16.7069 21.5263 17.5789Z" fill="#F5F5FA" stroke="currentColor" stroke-width="2" stroke-linecap="round" stroke-linejoin="round"/>
</svg>
