<svg width="20" height="20" viewBox="0 0 20 20" fill="none" xmlns="http://www.w3.org/2000/svg">
<path fill-rule="evenodd" clip-rule="evenodd" d="M4.99668 11.7431C4.31864 11.1577 3.76722 10.5696 3.38551 10.1276C3.3474 10.0835 3.31105 10.0409 3.27649 10C3.31105 9.95908 3.3474 9.91649 3.38551 9.87236C3.76722 9.43037 4.31864 8.84233 4.99668 8.2569C6.38378 7.05924 8.15301 6 10 6C11.847 6 13.6162 7.05924 15.0033 8.2569C15.6814 8.84233 16.2328 9.43037 16.6145 9.87236C16.6526 9.91649 16.689 9.95908 16.7235 10C16.689 10.0409 16.6526 10.0835 16.6145 10.1276C16.2328 10.5696 15.6814 11.1577 15.0033 11.7431C13.6162 12.9408 11.847 14 10 14C8.15301 14 6.38378 12.9408 4.99668 11.7431ZM18 10C18.8129 9.41765 18.8128 9.4174 18.8126 9.41713L18 10ZM18.8126 9.41713C19.062 9.76531 19.0624 10.2342 18.8129 10.5823L18 10C18.8129 10.5823 18.8123 10.5832 18.8121 10.5835L18.8109 10.5851L18.8076 10.5897L18.797 10.6043C18.7882 10.6163 18.776 10.633 18.7603 10.654C18.729 10.696 18.684 10.7554 18.6262 10.8296C18.5105 10.978 18.3427 11.1864 18.1281 11.4349C17.7002 11.9304 17.0801 12.5923 16.3104 13.2569C14.8021 14.5592 12.5713 16 10 16C7.42871 16 5.19795 14.5592 3.68962 13.2569C2.91993 12.5923 2.29978 11.9304 1.87185 11.4349C1.65729 11.1864 1.4895 10.978 1.37382 10.8296C1.31595 10.7554 1.27102 10.696 1.23969 10.654C1.22402 10.633 1.21175 10.6163 1.20295 10.6043L1.19237 10.5897L1.18905 10.5851L1.18706 10.5823L1.99883 10.0008C1.19192 10.5789 1.1869 10.5821 1.18706 10.5823L1.18706 10.5823C0.937647 10.2342 0.937647 9.76583 1.18706 9.41765L2 10C1.18706 9.41765 1.1877 9.41677 1.18789 9.4165L1.18905 9.41488L1.19237 9.41028L1.20295 9.39573C1.21175 9.38369 1.22402 9.36701 1.23969 9.346C1.27102 9.304 1.31595 9.24463 1.37382 9.17039C1.4895 9.02199 1.65729 8.81358 1.87185 8.56514C2.29978 8.06963 2.91993 7.40767 3.68962 6.7431C5.19795 5.44076 7.42871 4 10 4C12.5713 4 14.8021 5.44076 16.3104 6.7431C17.0801 7.40767 17.7002 8.06963 18.1281 8.56514C18.3427 8.81358 18.5105 9.02199 18.6262 9.17039C18.684 9.24463 18.729 9.304 18.7603 9.346C18.776 9.36701 18.7882 9.38369 18.797 9.39573L18.8076 9.41028L18.8109 9.41488L18.8126 9.41713ZM10 13C11.6569 13 13 11.6569 13 10C13 8.34315 11.6569 7 10 7C8.34315 7 7 8.34315 7 10C7 11.6569 8.34315 13 10 13Z" fill="#C5C5D6"/>
<rect x="15.6567" y="2.92896" width="2" height="18" rx="1" transform="rotate(45 15.6567 2.92896)" fill="#C5C5D6"/>
</svg>
