<svg width="54" height="29" viewBox="0 0 54 29" fill="none" xmlns="http://www.w3.org/2000/svg">
<path d="M3.47757 0L0 0.923947L2.48826 10.1336L5.96583 9.20966L3.47757 0Z" fill="#B381D9"/>
<path d="M24.7287 24.0822C28.3262 22.1449 31.7139 18.628 31.7139 12.667C31.7139 6.25899 27.3369 1.8777 20.6516 1.8777C13.9363 1.8777 9.55934 6.55704 9.55934 12.667C9.55934 19.1048 13.9363 23.1881 18.9128 23.1881C21.7608 23.1881 23.1398 22.5622 24.2191 21.668L24.8786 22.741C21.6409 24.5591 17.2939 24.8273 14.266 25.1254L14.6558 29C22.1505 27.927 27.217 27.7184 35.4912 28.851V24.6783C30.7245 24.0524 27.7566 23.8438 24.7287 24.0822ZM20.6516 19.3135C16.6644 19.3135 14.356 16.7205 14.356 12.667C14.356 8.64337 16.6644 6.05036 20.6516 6.05036C24.6388 6.05036 26.9172 8.64337 26.9172 12.667C26.9172 16.7205 24.6388 19.3135 20.6516 19.3135Z" fill="#B381D9"/>
<path d="M31.9054 2.17575L37.9912 23.1881H47.8843L54 2.17575H49.1434L43.5373 21.9959H42.3382L36.762 2.17575H31.9054Z" fill="#B381D9"/>
</svg>
