<svg width="206" height="59" viewBox="0 0 206 59" fill="none" xmlns="http://www.w3.org/2000/svg">
<path d="M32.9904 48.3022C40.8142 44.0879 48.1816 36.4374 48.1816 23.4703C48.1816 9.53077 38.6627 0 24.1234 0C9.51897 0 0 10.1791 0 23.4703C0 37.4747 9.51897 46.3571 20.3419 46.3571C26.5358 46.3571 29.5349 44.9956 31.882 43.0506L33.3164 45.3846C26.275 49.3396 16.8212 49.9231 10.2362 50.5714L11.0837 59C27.3833 56.6659 38.4019 56.2121 56.3966 58.6758V49.5989C46.0301 48.2374 39.5754 47.7835 32.9904 48.3022ZM24.1234 37.9286C15.452 37.9286 10.4317 32.2879 10.4317 23.4703C10.4317 14.7176 15.452 9.07692 24.1234 9.07692C32.7948 9.07692 37.7499 14.7176 37.7499 23.4703C37.7499 32.2879 32.7948 37.9286 24.1234 37.9286Z" fill="#B381D9"/>
<path d="M48.5983 0.648351L61.8336 46.3571H83.349L96.6495 0.648351H86.0874L73.8953 43.7637H71.2873L59.1604 0.648351H48.5983Z" fill="#B381D9"/>
<path d="M108.859 10.3736C112.706 10.3736 115.118 8.55824 115.118 5.18681C115.118 1.88022 112.706 0 108.859 0C105.012 0 102.73 1.88022 102.73 5.18681C102.73 8.55824 105.012 10.3736 108.859 10.3736ZM95.3629 46.3571H124.05V37.2802H114.727V18.4132C114.727 14.7824 112.706 12.7725 109.055 12.967L96.6668 13.6154V22.6923L104.686 22.3033V37.2802H95.3629V46.3571Z" fill="#B381D9"/>
<path d="M147.813 22.044C152.833 22.044 154.594 24.3132 154.594 30.278V46.3571H165.025V28.6571C165.025 18.5429 159.94 12.967 151.529 12.967C144.488 12.967 140.38 17.5703 139.076 23.4055H136.468L138.424 17.5703V13.6154H127.993V46.3571H138.424V34.233C138.424 25.0264 142.141 22.044 147.813 22.044Z" fill="#B381D9"/>
<path d="M168.902 29.9538C168.902 41.4297 177.117 47.0055 187.484 47.0055C197.785 47.0055 206 41.4297 206 29.9538C206 18.5429 197.785 12.967 187.484 12.967C177.117 12.967 168.902 18.5429 168.902 29.9538ZM179.334 29.9538C179.334 24.5077 182.529 22.044 187.484 22.044C192.374 22.044 195.568 24.5077 195.568 29.9538C195.568 35.4648 192.374 37.9286 187.484 37.9286C182.529 37.9286 179.334 35.4648 179.334 29.9538Z" fill="#B381D9"/>
</svg>
