<svg width="40" height="40" viewBox="0 0 40 40" fill="none" xmlns="http://www.w3.org/2000/svg">
<path d="M18.6063 0.432031C19.4475 -0.14401 20.553 -0.14401 21.3942 0.432031L23.5972 1.94076C24.0883 2.27711 24.6832 2.42467 25.2734 2.35656L27.9208 2.05104C28.9315 1.93439 29.9104 2.45146 30.3892 3.35493L31.6433 5.72123C31.9229 6.24876 32.3814 6.65764 32.9355 6.87337L35.4207 7.84105C36.3696 8.21052 36.9976 9.1262 37.0043 10.1501L37.0221 12.8319C37.0261 13.4298 37.2433 14.0063 37.6343 14.4565L39.388 16.4756C40.0576 17.2466 40.1908 18.3511 39.724 19.2609L38.5014 21.6438C38.2288 22.1751 38.155 22.7872 38.2933 23.3686L38.9138 25.9767C39.1507 26.9725 38.7586 28.0129 37.9252 28.6002L35.7423 30.1383C35.2557 30.4812 34.9076 30.9886 34.7616 31.5682L34.1067 34.1678C33.8566 35.1603 33.0291 35.8981 32.02 36.0283L29.3769 36.3693C28.7877 36.4453 28.2452 36.7319 27.8483 37.1767L26.068 39.1722C25.3883 39.9341 24.3149 40.2004 23.3612 39.8437L20.8634 38.9094C20.3066 38.7011 19.6939 38.7011 19.1371 38.9094L16.6393 39.8437C15.6856 40.2004 14.6122 39.9341 13.9325 39.1722L12.1522 37.1767C11.7553 36.7319 11.2128 36.4453 10.6236 36.3693L7.98049 36.0283C6.97134 35.8981 6.14383 35.1603 5.89378 34.1678L5.23885 31.5682C5.09284 30.9886 4.74481 30.4812 4.25818 30.1383L2.07528 28.6002C1.24184 28.0129 0.849813 26.9725 1.08671 25.9767L1.70717 23.3686C1.84549 22.7872 1.77165 22.1751 1.49908 21.6438L0.276469 19.2609C-0.190332 18.3511 -0.0570748 17.2466 0.612502 16.4756L2.36622 14.4565C2.75718 14.0063 2.97443 13.4298 2.97839 12.8319L2.99613 10.1501C3.00291 9.1262 3.63093 8.21052 4.57979 7.84105L7.065 6.87337C7.61904 6.65764 8.07762 6.24876 8.35719 5.72123L9.61124 3.35493C10.09 2.45146 11.0689 1.93439 12.0797 2.05104L14.7271 2.35656C15.3173 2.42467 15.9121 2.27711 16.4033 1.94076L18.6063 0.432031Z" fill="#B381D9"/>
<path d="M16.413 25.5413C18.0587 24.8532 19.99 23.2294 19.99 19.9817C19.99 17.133 18.3171 15 15.5018 15C12.6865 15 11 17.1055 11 19.9266C11 22.7752 12.7953 24.8394 15.1482 24.8394C16.005 24.8394 16.6715 24.6468 16.9571 24.4541L17.0795 24.6606C15.9506 25.3761 14.0329 25.5688 12.6593 25.7752L12.7817 26.6835C16.0322 26.2569 18.6435 26.4633 21.5541 27V26.0367C19.5548 25.6514 18.0179 25.4725 16.413 25.5413ZM15.5018 23.9037C13.3529 23.9037 12.1153 22.2523 12.1153 19.9266C12.1153 17.6009 13.3529 15.9633 15.5018 15.9633C17.6507 15.9633 18.8748 17.6697 18.8748 19.9817C18.8748 22.3073 17.6507 23.9037 15.5018 23.9037Z" fill="white"/>
<path d="M20.5268 15.1376L23.6278 24.8394H25.9127L29 15.1376H27.8983L24.9198 24.5229H24.607L21.6421 15.1376H20.5268Z" fill="white"/>
</svg>
