<svg width="40" height="40" viewBox="0 0 40 40" fill="none" xmlns="http://www.w3.org/2000/svg">
<path d="M18.8695 0.288938C19.5756 -0.0963126 20.4242 -0.0963128 21.1303 0.288938L28.7999 4.47296L36.1916 9.14717C36.8722 9.57755 37.2965 10.3261 37.3221 11.1418L37.5999 20L37.3221 28.8582C37.2965 29.6739 36.8722 30.4225 36.1916 30.8528L28.7999 35.5271L21.1303 39.7111C20.4242 40.0963 19.5756 40.0963 18.8695 39.7111L11.1999 35.5271L3.80817 30.8528C3.12756 30.4225 2.7033 29.6739 2.67772 28.8582L2.3999 20L2.67772 11.1418C2.7033 10.3261 3.12756 9.57755 3.80817 9.14717L11.1999 4.47296L18.8695 0.288938Z" fill="#FFE7EF"/>
<path d="M12.0779 15.8636H11.1575L8.34499 26.3125H9.26545L12.0779 15.8636ZM16.3212 16.2727H15.2644L13.0826 17.7216V18.7955L15.2132 17.3807H15.2644V25H16.3212V16.2727ZM21.6777 25.1193C23.6039 25.1193 24.7118 23.4872 24.7118 20.6364C24.7118 17.8068 23.5868 16.1534 21.6777 16.1534C19.7686 16.1534 18.6436 17.8068 18.6436 20.6364C18.6436 23.4872 19.7516 25.1193 21.6777 25.1193ZM21.6777 24.1818C20.4078 24.1818 19.6664 22.9077 19.6664 20.6364C19.6664 18.3693 20.4164 17.0739 21.6777 17.0739C22.9391 17.0739 23.6891 18.3693 23.6891 20.6364C23.6891 22.9077 22.9476 24.1818 21.6777 24.1818ZM29.1777 25.1193C31.1039 25.1193 32.2118 23.4872 32.2118 20.6364C32.2118 17.8068 31.0868 16.1534 29.1777 16.1534C27.2686 16.1534 26.1436 17.8068 26.1436 20.6364C26.1436 23.4872 27.2516 25.1193 29.1777 25.1193ZM29.1777 24.1818C27.9078 24.1818 27.1664 22.9077 27.1664 20.6364C27.1664 18.3693 27.9164 17.0739 29.1777 17.0739C30.4391 17.0739 31.1891 18.3693 31.1891 20.6364C31.1891 22.9077 30.4476 24.1818 29.1777 24.1818Z" fill="#1C082A"/>
</svg>
