<svg width="40" height="40" viewBox="0 0 40 40" fill="none"
    xmlns="http://www.w3.org/2000/svg">
    <path d="M18.6061 0.432275C19.4472 -0.143766 20.5528 -0.143766 21.3939 0.432275L23.597 1.94101C24.0881 2.27735 24.683 2.42491 25.2731 2.3568L27.9205 2.05128C28.9313 1.93463 29.9102 2.4517 30.389 3.35517L31.6431 5.72148C31.9226 6.24901 32.3812 6.65789 32.9352 6.87361L35.4204 7.84129C36.3693 8.21076 36.9973 9.12645 37.0041 10.1504L37.0219 12.8322C37.0258 13.43 37.2431 14.0065 37.634 14.4567L39.3877 16.4759C40.0573 17.2468 40.1906 18.3514 39.7238 19.2612L38.5012 21.6441C38.2286 22.1753 38.1547 22.7874 38.2931 23.3689L38.9135 25.977C39.1504 26.9728 38.7584 28.0131 37.925 28.6004L35.7421 30.1385C35.2554 30.4814 34.9074 30.9889 34.7614 31.5684L34.1065 34.168C33.8564 35.1605 33.0289 35.8984 32.0198 36.0286L29.3767 36.3695C28.7874 36.4456 28.2449 36.7321 27.8481 37.177L26.0678 39.1725C25.3881 39.9344 24.3146 40.2006 23.361 39.8439L20.8632 38.9097C20.3063 38.7014 19.6937 38.7014 19.1368 38.9097L16.639 39.8439C15.6854 40.2006 14.6119 39.9344 13.9322 39.1725L12.1519 37.177C11.7551 36.7321 11.2126 36.4456 10.6233 36.3695L7.98024 36.0286C6.9711 35.8984 6.14359 35.1605 5.89353 34.168L5.2386 31.5684C5.0926 30.9889 4.74457 30.4814 4.25793 30.1385L2.07504 28.6004C1.2416 28.0131 0.849569 26.9728 1.08646 25.977L1.70693 23.3689C1.84525 22.7874 1.7714 22.1753 1.49884 21.6441L0.276225 19.2612C-0.190577 18.3514 -0.057319 17.2468 0.612258 16.4759L2.36597 14.4567C2.75693 14.0065 2.97418 13.43 2.97814 12.8322L2.99589 10.1504C3.00267 9.12645 3.63068 8.21076 4.57955 7.84129L7.06476 6.87361C7.6188 6.65789 8.07738 6.24901 8.35695 5.72148L9.61099 3.35517C10.0898 2.4517 11.0687 1.93463 12.0795 2.05128L14.7269 2.3568C15.317 2.42491 15.9119 2.27735 16.403 1.94101L18.6061 0.432275Z" fill="#B381D9"/>
    <path d="M12.0779 15.8636H11.1575L8.34499 26.3125H9.26545L12.0779 15.8636ZM16.3212 16.2727H15.2644L13.0826 17.7216V18.7955L15.2132 17.3807H15.2644V25H16.3212V16.2727ZM21.6777 25.1193C23.6039 25.1193 24.7118 23.4872 24.7118 20.6364C24.7118 17.8068 23.5868 16.1534 21.6777 16.1534C19.7686 16.1534 18.6436 17.8068 18.6436 20.6364C18.6436 23.4872 19.7516 25.1193 21.6777 25.1193ZM21.6777 24.1818C20.4078 24.1818 19.6664 22.9077 19.6664 20.6364C19.6664 18.3693 20.4164 17.0739 21.6777 17.0739C22.9391 17.0739 23.6891 18.3693 23.6891 20.6364C23.6891 22.9077 22.9476 24.1818 21.6777 24.1818ZM29.1777 25.1193C31.1039 25.1193 32.2118 23.4872 32.2118 20.6364C32.2118 17.8068 31.0868 16.1534 29.1777 16.1534C27.2686 16.1534 26.1436 17.8068 26.1436 20.6364C26.1436 23.4872 27.2516 25.1193 29.1777 25.1193ZM29.1777 24.1818C27.9078 24.1818 27.1664 22.9077 27.1664 20.6364C27.1664 18.3693 27.9164 17.0739 29.1777 17.0739C30.4391 17.0739 31.1891 18.3693 31.1891 20.6364C31.1891 22.9077 30.4476 24.1818 29.1777 24.1818Z" fill="white"/>
</svg>
