<svg width="40" height="40" viewBox="0 0 40 40" fill="none" xmlns="http://www.w3.org/2000/svg">
<rect width="40" height="40" rx="8" fill="#EBD9D7"/>
<path d="M15.8907 21.2262C16.0033 24.6842 16.9137 25.3672 17.7984 25.8543C17.7984 25.8543 14.9795 27.7344 11.7292 27.5808C9.83731 27.4908 8.35198 27.4099 7.2337 26.6357C6.43107 26.0797 5.30937 26.8257 6.56016 27.8047C7.49668 28.5376 9.13891 28.7843 11.3829 28.7996C15.4478 28.8278 17.1497 27.7191 17.1497 27.7191L13.7468 34.8808C13.7468 34.8808 13.4298 35.6206 13.9788 35.9329C14.5256 36.2453 14.9871 35.3651 14.9871 35.3651L18.4183 28.6851C18.4183 28.6851 18.6197 28.0599 18.8215 28.0318C19.0244 28.003 20.3498 30.2135 23.5793 30.3341C25.2524 30.3341 25.9769 29.6409 25.9769 29.6409L27.426 28.8229C28.0471 27.8005 26.8383 27.6051 26.3208 27.9465C25.801 28.2872 24.4167 29.5377 23.0319 29.3681C21.6491 29.197 18.9374 27.2361 19.2844 25.7018C19.6302 24.1666 21.7058 23.3989 23.1477 22.5468C23.1477 22.5468 27.8775 19.9447 30.0625 16.9463C32.2461 13.9471 32.9741 11.1796 32.9996 8.84742C33.0269 6.51504 31.6739 4.92598 30.1925 5.00266C28.709 5.07917 26.9155 6.00209 24.627 10.6152C22.3397 15.228 19.5055 21.6094 19.0631 23.0963C19.0631 23.0963 18.3988 23.3865 17.8931 23.8137C17.8931 23.8137 17.0329 22.9411 17.0598 21.0699C17.0855 19.1993 17.3713 17.7727 17.397 17.4137C17.423 17.0544 16.6694 16.8163 16.4619 17.3284C16.2539 17.8414 15.8397 19.6628 15.8904 21.2259L15.8907 21.2262ZM23.741 15.331C24.3904 13.8698 27.1215 8.64124 27.9007 7.84763C28.6812 7.0526 31.5677 4.20735 31.7226 9.02612C31.8782 13.8434 28.0315 17.15 26.6274 18.5337C25.2229 19.9186 20.1526 22.8396 20.1526 22.8396C20.2566 22.3279 23.0899 16.7919 23.7408 15.3311L23.741 15.331Z" fill="#B08883"/>
</svg>
