<svg width="40" height="40" viewBox="0 0 40 40" fill="none" xmlns="http://www.w3.org/2000/svg">
<rect width="40" height="40" rx="8" fill="#F0F0F5"/>
<rect width="40" height="40" rx="8" fill="#AE1832"/>
<path d="M22.4242 11.5145C23.7631 11.5145 24.8485 10.4291 24.8485 9.09026C24.8485 7.75139 23.7631 6.66602 22.4242 6.66602C21.0854 6.66602 20 7.75139 20 9.09026C20 10.4291 21.0854 11.5145 22.4242 11.5145Z" fill="white"/>
<path d="M20.0024 16.3622C21.3412 16.3622 22.4266 15.2768 22.4266 13.9379C22.4266 12.599 21.3412 11.5137 20.0024 11.5137C18.6635 11.5137 17.5781 12.599 17.5781 13.9379C17.5781 15.2768 18.6635 16.3622 20.0024 16.3622Z" fill="white"/>
<path d="M16.3642 19.9989C17.7031 19.9989 18.7884 18.9135 18.7884 17.5746C18.7884 16.2358 17.7031 15.1504 16.3642 15.1504C15.0253 15.1504 13.9399 16.2358 13.9399 17.5746C13.9399 18.9135 15.0253 19.9989 16.3642 19.9989Z" fill="white"/>
<path d="M23.6376 19.9989C24.9765 19.9989 26.0619 18.9135 26.0619 17.5746C26.0619 16.2358 24.9765 15.1504 23.6376 15.1504C22.2987 15.1504 21.2134 16.2358 21.2134 17.5746C21.2134 18.9135 22.2987 19.9989 23.6376 19.9989Z" fill="white"/>
<path d="M16.3642 29.6952C17.7031 29.6952 18.7884 28.6098 18.7884 27.2709C18.7884 25.932 17.7031 24.8467 16.3642 24.8467C15.0253 24.8467 13.9399 25.932 13.9399 27.2709C13.9399 28.6098 15.0253 29.6952 16.3642 29.6952Z" fill="white"/>
<path d="M23.6376 29.6952C24.9765 29.6952 26.0619 28.6098 26.0619 27.2709C26.0619 25.932 24.9765 24.8467 23.6376 24.8467C22.2987 24.8467 21.2134 25.932 21.2134 27.2709C21.2134 28.6098 22.2987 29.6952 23.6376 29.6952Z" fill="white"/>
<path d="M20.0024 33.3338C21.3412 33.3338 22.4266 32.2485 22.4266 30.9096C22.4266 29.5707 21.3412 28.4854 20.0024 28.4854C18.6635 28.4854 17.5781 29.5707 17.5781 30.9096C17.5781 32.2485 18.6635 33.3338 20.0024 33.3338Z" fill="white"/>
<path d="M13.9399 24.8495C15.2787 24.8495 16.3641 23.7641 16.3641 22.4252C16.3641 21.0863 15.2787 20.001 13.9399 20.001C12.601 20.001 11.5156 21.0863 11.5156 22.4252C11.5156 23.7641 12.601 24.8495 13.9399 24.8495Z" fill="white"/>
<path d="M26.0595 24.8495C27.3984 24.8495 28.4837 23.7641 28.4837 22.4252C28.4837 21.0863 27.3984 20.001 26.0595 20.001C24.7206 20.001 23.6353 21.0863 23.6353 22.4252C23.6353 23.7641 24.7206 24.8495 26.0595 24.8495Z" fill="white"/>
<path d="M20.0024 24.8495C21.3412 24.8495 22.4266 23.7641 22.4266 22.4252C22.4266 21.0863 21.3412 20.001 20.0024 20.001C18.6635 20.001 17.5781 21.0863 17.5781 22.4252C17.5781 23.7641 18.6635 24.8495 20.0024 24.8495Z" fill="white"/>
</svg>
